<svg xmlns="http://www.w3.org/2000/svg" width="110" height="400" viewBox="0 0 101 25" fill="none">
  <path fillRule="evenodd" clipRule="evenodd" d="M11.4888 1.16253C10.2261 2.44897 10.4384 2.7195 12.7105 2.7195C14.9975 2.7195 15.1905 2.44919 13.8169 1.16987C13.2223 0.616127 12.6759 0.163086 12.6027 0.163086C12.5296 0.163086 12.0283 0.612793 11.4888 1.16253ZM8.05741 4.59369L6.97793 5.68961L8.01828 6.34939C10.5987 7.98594 13.6911 8.12554 16.5094 6.73263C17.4154 6.28492 18.1568 5.84522 18.1568 5.75563C18.1568 5.66605 17.6749 5.11786 17.0858 4.53789L16.015 3.48287L15.0295 3.92991C13.7229 4.52277 11.7051 4.52589 10.4078 3.93724C9.87469 3.69539 9.37074 3.49754 9.28782 3.49754C9.20491 3.49754 8.65116 3.99082 8.05741 4.59369ZM4.69961 7.95171C4.06029 8.60104 3.69016 9.13855 3.81887 9.23125C5.45787 10.4108 7.10553 11.3368 8.23302 11.7121C11.1947 12.6975 14.5276 12.6608 17.3788 11.6114C19.0347 11.0018 21.3801 9.55313 21.3801 9.14011C21.3801 9.00362 20.9482 8.42342 20.4205 7.85078L19.461 6.80977L18.4433 7.48377C16.5954 8.70796 15.16 9.13344 12.8217 9.15055C10.4255 9.16812 9.20002 8.83311 7.15488 7.60159C6.45176 7.17834 5.86 6.832 5.83955 6.832C5.81932 6.832 5.30626 7.33594 4.69961 7.95171ZM1.42896 11.2633C0.848318 11.865 0.373047 12.4063 0.373047 12.4659C0.373047 12.7767 3.38362 14.7882 4.93014 15.5109C7.67617 16.794 9.36229 17.1497 12.7105 17.1521C15.0358 17.1539 15.9387 17.0579 17.3319 16.6597C19.6831 15.988 21.5117 15.1134 23.4613 13.7281L25.098 12.565L23.935 11.3875L22.7719 10.2098L21.7427 11.0001C20.4447 11.9966 17.9996 13.1617 16.2673 13.6092C14.4805 14.0709 11.0151 14.068 9.11065 13.6034C7.27692 13.1559 4.65315 11.8928 3.49076 10.8978C3.02105 10.4955 2.60246 10.1669 2.56067 10.1676C2.51888 10.1682 2.0096 10.6613 1.42896 11.2633ZM9.04018 21.1406L12.7056 24.8381L16.3124 21.2362C18.2962 19.2553 19.8814 17.5965 19.8351 17.5503C19.7889 17.504 19.5673 17.5607 19.343 17.6761C17.2007 18.7773 10.8219 19.087 7.82 18.2354C6.96415 17.9926 6.06385 17.715 5.81932 17.6185C5.5748 17.522 7.02417 19.107 9.04018 21.1406Z" fill="white" />
  <path d="M31.1387 20.1698V4.60902H37.941C39.6304 4.60902 41.1124 4.93505 42.3869 5.58712C43.6614 6.23919 44.6543 7.1432 45.3657 8.29915C46.077 9.45509 46.4327 10.8185 46.4327 12.3894C46.4327 13.9455 46.077 15.3089 45.3657 16.4797C44.6543 17.6356 43.6614 18.5396 42.3869 19.1917C41.1124 19.8438 39.6304 20.1698 37.941 20.1698H31.1387ZM34.0285 17.7245H37.8076C38.9783 17.7245 39.9861 17.5022 40.8308 17.0576C41.6904 16.6131 42.3499 15.9906 42.8093 15.1904C43.2835 14.3901 43.5206 13.4564 43.5206 12.3894C43.5206 11.3076 43.2835 10.3739 42.8093 9.58847C42.3499 8.7882 41.6904 8.16577 40.8308 7.72117C39.9861 7.27658 38.9783 7.05428 37.8076 7.05428H34.0285V17.7245Z" fill="white" />
  <path d="M56.7956 20.3921C55.5803 20.3921 54.4614 20.192 53.4389 19.7919C52.4163 19.3918 51.5271 18.836 50.7713 18.1247C50.0155 17.3985 49.4301 16.5538 49.0152 15.5905C48.6002 14.6124 48.3927 13.5454 48.3927 12.3894C48.3927 11.2335 48.6002 10.1739 49.0152 9.21056C49.4301 8.23246 50.0155 7.38773 50.7713 6.67638C51.5271 5.95021 52.4163 5.38706 53.4389 4.98692C54.4614 4.58679 55.5729 4.38672 56.7733 4.38672C57.9886 4.38672 59.1 4.58679 60.1078 4.98692C61.1304 5.38706 62.0195 5.95021 62.7754 6.67638C63.5312 7.38773 64.1166 8.23246 64.5315 9.21056C64.9465 10.1739 65.1539 11.2335 65.1539 12.3894C65.1539 13.5454 64.9465 14.6124 64.5315 15.5905C64.1166 16.5686 63.5312 17.4133 62.7754 18.1247C62.0195 18.836 61.1304 19.3918 60.1078 19.7919C59.1 20.192 57.996 20.3921 56.7956 20.3921ZM56.7733 17.8579C57.5588 17.8579 58.285 17.7245 58.9519 17.4578C59.6187 17.191 60.1967 16.8131 60.6858 16.3241C61.1748 15.8202 61.5527 15.2422 61.8195 14.5902C62.1011 13.9233 62.2418 13.1897 62.2418 12.3894C62.2418 11.5891 62.1011 10.863 61.8195 10.2109C61.5527 9.54401 61.1748 8.96604 60.6858 8.47698C60.1967 7.97311 59.6187 7.5878 58.9519 7.32104C58.285 7.05428 57.5588 6.92091 56.7733 6.92091C55.9879 6.92091 55.2617 7.05428 54.5948 7.32104C53.9428 7.5878 53.3648 7.97311 52.8609 8.47698C52.3719 8.96604 51.9865 9.54401 51.705 10.2109C51.4382 10.863 51.3048 11.5891 51.3048 12.3894C51.3048 13.1749 51.4382 13.901 51.705 14.5679C51.9865 15.2348 52.3719 15.8202 52.8609 16.3241C53.35 16.8131 53.9279 17.191 54.5948 17.4578C55.2617 17.7245 55.9879 17.8579 56.7733 17.8579Z" fill="white" />
  <path d="M68.2171 20.1698V4.60902H70.5957L77.398 15.9684H76.1531L82.8443 4.60902H85.2228L85.2451 20.1698H82.5108L82.4886 8.89935H83.0666L77.3758 18.3914H76.0864L70.3067 8.89935H70.9736V20.1698H68.2171Z" fill="white" />
  <path d="M89.4482 20.1698V4.60902H92.3381V17.7245H100.474V20.1698H89.4482Z" fill="white" />
  <rect x="41.9424" y="10.833" width="10.6703" height="3.11216" rx="1.55608" fill="url(#paint0_linear_7_17)" />
  <defs>
    <linearGradient id="paint0_linear_7_17" x1="53.2795" y1="10.1661" x2="40.6086" y2="14.1675" gradientUnits="userSpaceOnUse">
      <stop stopColor="#FF2DF7" />
      <stop offset="1" stopColor="#00E0FF" />
    </linearGradient>
  </defs>
</svg>