<svg xmlns="http://www.w3.org/2000/svg" width="32" height="32" viewBox="0 0 101 25" fill="none">
  <path d="M11.4888 1.16253C10.2261 2.44897 10.4384 2.7195 12.7105 2.7195C14.9975 2.7195 15.1905 2.44919 13.8169 1.16987C13.2223 0.616127 12.6759 0.163086 12.6027 0.163086C12.5296 0.163086 12.0283 0.612793 11.4888 1.16253ZM8.05741 4.59369L6.97793 5.68961L8.01828 6.34939C10.5987 7.98594 13.6911 8.12554 16.5094 6.73263C17.4154 6.28492 18.1568 5.84522 18.1568 5.75563C18.1568 5.66605 17.6749 5.11786 17.0858 4.53789L16.015 3.48287L15.0295 3.92991C13.7229 4.52277 11.7051 4.52589 10.4078 3.93724C9.87469 3.69539 9.37074 3.49754 9.28782 3.49754C9.20491 3.49754 8.65117 3.99082 8.05741 4.59369ZM4.69961 7.95171C4.06029 8.60104 3.69016 9.13855 3.81887 9.23125C5.45787 10.4108 7.10553 11.3368 8.23302 11.7121C11.1947 12.6975 14.5276 12.6608 17.3788 11.6114C19.0347 11.0018 21.3801 9.55313 21.3801 9.14011C21.3801 9.00362 20.9482 8.42342 20.4205 7.85078L19.461 6.80977L18.4433 7.48377C16.5954 8.70796 15.16 9.13344 12.8217 9.15055C10.4255 9.16812 9.20002 8.83311 7.15488 7.60159C6.45176 7.17834 5.86 6.832 5.83955 6.832C5.81932 6.832 5.30626 7.33594 4.69961 7.95171ZM1.42896 11.2633C0.848318 11.865 0.373047 12.4063 0.373047 12.4659C0.373047 12.7767 3.38362 14.7882 4.93014 15.5109C7.67617 16.794 9.36229 17.1497 12.7105 17.1521C15.0358 17.1539 15.9387 17.0579 17.3319 16.6597C19.6831 15.988 21.5117 15.1135 23.4613 13.7281L25.098 12.565L23.935 11.3875L22.7719 10.2098L21.7427 11.0001C20.4447 11.9966 17.9996 13.1617 16.2673 13.6092C14.4805 14.0709 11.0151 14.068 9.11065 13.6034C7.27692 13.1559 4.65315 11.8928 3.49076 10.8978C3.02105 10.4955 2.60246 10.1669 2.56067 10.1676C2.51888 10.1682 2.0096 10.6613 1.42896 11.2633ZM9.04018 21.1406L12.7056 24.8381L16.3124 21.2362C18.2962 19.2553 19.8814 17.5965 19.8351 17.5503C19.7889 17.504 19.5673 17.5607 19.343 17.6761C17.2007 18.7773 10.8219 19.087 7.82 18.2354C6.96415 17.9926 6.06385 17.715 5.81932 17.6185C5.5748 17.522 7.02417 19.107 9.04018 21.1406Z" fill="white" />
</svg>